#N canvas 0 0 1920 982 10;
#N canvas 0 22 665 386 (subpatch) 0;
#X array nab 100 float 5;
#A 0 -0.107859 -0.107859 -0.118573 -0.124823 -0.127501 -0.132858 -0.13643
-0.140001 -0.147144 -0.150715 -0.154287 -0.157858 -0.16143 -0.165001
-0.168573 -0.168573 -0.175715 -0.179287 -0.18643 -0.18643 -0.190001
-0.193573 -0.193573 -0.197144 -0.200715 -0.200715 -0.204287 -0.206073
-0.207858 -0.209644 -0.21143 -0.218572 -0.218572 -0.218572 -0.218572
-0.218572 -0.218572 -0.218572 -0.218572 -0.222144 -0.222144 -0.222144
-0.225715 -0.229287 -0.229287 -0.229287 -0.232858 -0.232858 -0.232858
-0.232858 -0.232858 -0.232858 -0.232858 -0.232858 -0.232858 -0.229287
-0.229287 -0.225715 -0.225715 -0.225715 -0.225715 -0.222144 -0.222144
-0.222144 -0.222144 -0.222144 -0.222144 -0.222144 -0.222144 -0.222144
-0.225715 -0.225715 -0.226608 -0.227501 -0.228394 -0.232858 -0.232858
-0.23643 -0.240001 -0.243572 -0.250715 -0.254287 -0.256072 -0.257858
-0.265001 -0.268572 -0.268572 -0.277501 -0.293572 -0.297144 -0.300715
-0.304287 -0.318572 -0.318572 -0.340001 -0.347144 -0.365001 -0.372143
-0.382858 -0.407858;
#X coords 0 0 99 -0.5 200 140 1 0 0;
#X restore -214 -209 graph;
#X obj 336 814 snapshot~;
#X obj 192 911 -;
#X floatatom 71 840 15 0 0 0 - - -;
#X obj 192 982 *;
#X msg 592 695 stop;
#X obj 24 550 bng 15 250 50 0 empty empty empty 17 7 0 10 -262144 -1
-1;
#X obj 771 747 *;
#X obj 819 612 snapshot~;
#X obj 819 591 bng 15 250 50 0 empty empty empty 17 7 0 10 -262144
-1 -1;
#N canvas 0 22 665 386 (subpatch) 0;
#X array ccir 100 float 5;
#A 0 0.0978551 0.0978551 0.0978551 0.0978551 0.0978551 0.0978551 0.0978551
0.0978551 0.0978551 0.0978551 0.0978551 0.0978551 0.0978551 0.0978551
0.0978551 0.0935694 0.0892837 0.0935694 0.0935694 0.0935694 0.0935694
0.0892837 0.0892837 0.084998 0.084998 0.084998 0.084998 0.084998 0.0807123
0.0807123 0.0807123 0.0764266 0.0721409 0.0721409 0.0721409 0.0721409
0.0721409 0.0721409 0.0678552 0.0678552 0.0635695 0.0635695 0.0592838
0.0549981 0.0507124 0.0507124 0.0464267 0.042141 0.042141 0.042141
0.042141 0.0378553 0.0335696 0.0292839 0.0335696 0.0249982 0.0207125
0.0164268 0.0164268 0.0121411 0.0121411 0.0121411 0.00356965 -0.000716054
-0.000716054 -0.000716054 -0.00928746 -0.00928746 -0.0135732 -0.0178589
-0.0178589 -0.0178589 -0.0221446 -0.0221446 -0.030716 -0.0350017 -0.0350017
-0.0478588 -0.0478588 -0.0478588 -0.0521445 -0.0521445 -0.0564302 -0.0650016
-0.0671445 -0.073573 -0.0778587 -0.0864301 -0.0907158 -0.0950015 -0.103573
-0.103573 -0.112144 -0.120716 -0.133573 -0.137859 -0.14643 -0.150716
-0.17643 -0.193573;
#X coords 0 0.1 99 -0.5 200 140 1 0 0;
#X restore -215 -52 graph;
#X obj 790 824 tabread4~ canzone_right;
#X obj 587 825 tabread4~ canzone_left;
#X floatatom -84 743 15 0 0 0 - - -;
#X obj -184 713 r sampleNumber;
#X floatatom 86 765 5 0 1 0 - - -;
#X obj 71 788 *;
#X obj 107 724 r noAutomaticPlay;
#X msg 86 739 1;
#X text 1175 200 OPZIONI: NAB abilita l'equalizzazione NAB IEC abilita
l'equalizzazione IEC Stereo abilita la riproduzione stereo: se ho caricato
due file verranno riprodotti con canale sx e dx \, se non è arrivo
si riprodurrà solo il file sx su entrambi i canali.;
#X text 1175 259 Va da sè che potrei avere contemporaneamente più
equalizzazioni \, ma è da evitare!;
#X obj -64 698 bng 15 250 50 0 empty empty empty 17 7 0 10 -262144
-1 -1;
#X text -46 696 Sync \, Non toccare;
#X text 607 915 Gestione dello stereo e delle EQ.;
#X obj 592 675 r pause;
#X obj 212 957 r forwardSpeed;
#X obj 786 726 r backwardSpeed;
#N canvas 0 22 450 300 (subpatch) 0;
#X array canzone_left 505257 float 2;
#X coords 0 20 505257 -20 200 140 1 0 0;
#X restore -220 156 graph;
#N canvas 0 22 450 300 (subpatch) 0;
#X array canzone_right 505257 float 2;
#X coords 0 20 505257 -20 200 140 1 0 0;
#X restore 57 -120 graph;
#X obj 54 254 soundfiler;
#X obj 54 277 s sampleNumber;
#X msg 217 271 0;
#X obj 217 294 s noAutomaticPlay;
#X obj 284 -48 openpanel;
#X obj 302 51 soundfiler;
#X obj 296 -131 bng 15 250 50 0 empty empty empty 17 7 0 10 -262144
-1 -1;
#X msg 356 -66 0;
#X obj 356 -46 s noAutomaticPlay;
#X msg 276 -21 read -resize \$1 canzone_right;
#X msg 355 -109 1;
#X text 267 -146 RIGHT CHANNEL;
#X msg 876 -159 0;
#X obj 833 -80 s automaticStereo;
#X text 872 -137 FORZA STEREO: se ho forzato il MONO e ho canale destro
\, ripristina la sua riproduzione;
#X msg 878 -110 1;
#X text 874 -190 FORZA MONO: elimina dalla riproduzione il canale destro
se presente. Comporta l'ascolto solo del canale sinistro;
#X msg 1198 11 1;
#X obj 1222 -15 bng 15 250 50 0 empty empty empty 17 7 0 10 -262144
-1 -1;
#X msg 1241 11 0;
#X text 1203 -31 ATTIVA NAB;
#X obj 1349 -16 bng 15 250 50 0 empty empty empty 17 7 0 10 -262144
-1 -1;
#X msg 1368 10 1;
#X msg 1325 10 0;
#X text 1253 -51 EQUALIZZAZIONI;
#X obj 863 43 bng 15 250 50 0 empty empty empty 17 7 0 10 -262144 -1
-1;
#X obj 863 61 s pause;
#X text 881 43 PAUSA;
#X obj 852 136 hsl 128 15 4 0 0 0 empty empty empty -2 -8 0 10 -262144
-1 -1 9525 1;
#X obj 849 156 s forwardSpeed;
#X obj 869 219 hsl 128 15 4 0.25 0 0 empty empty empty -2 -8 0 10 -262144
-1 -1 10160 1;
#X obj 866 239 s backwardSpeed;
#X text 130 491 ============================================================
;
#X text -228 491 ============================================================
;
#X text 847 491 ============================================================
;
#X text 1206 491 ============================================================
;
#X text 93 1266 ============================================================
;
#X text -265 1266 ============================================================
;
#X text 680 1266 ============================================================
;
#X text 451 1266 =========================================;
#X text 799 555 bang per play in back;
#X text -16 514 bang per play in forward;
#X text 1079 552 Lo stereo funziona così: Se ho stereo OFF riproduco
il canale sinistro su entrambe le uscite \, se stereo ON riprdouco
canale sx e dx sulle uscite corrispondenti. Complicazioni dovute alle
equalizzazioni;
#X text 1073 701 Riproduzione con la velocità BACKWARD: molto simile
a FORWARD \, l'unica differenza è che so già che devo arrivare al
sample 0 e il tempo lo ricavo dalla posizione corrente diviso il sample
rate.;
#X text 1077 761 snapshot~ prende il sample corrente da line~;
#X text 210 117 SCEGLI;
#X text 285 -156 SCEGLI;
#X msg 634 -133 const 0;
#X obj 634 -113 s canzone_right;
#X obj 584 -89 s automaticStereo;
#X obj 606 -162 bng 15 250 50 0 empty empty empty 17 7 0 10 -262144
-1 -1;
#X msg 584 -112 0;
#X text 559 -189 CANCELLA RIGHT CHANNEL (Rende di nuovo MONO la riproduzione!)
;
#X text 1040 1266 ============================================================
;
#X text 1304 80 HOW TO USE:;
#X text -336 491 ==================;
#X text 1264 1266 ============================================================
;
#X text 499 491 FINE INTERFACCIA UTENTE NON TOCCARE SOTTO ==================
;
#X text -338 1266 ==================;
#X text -260 96 Risposta in frequenza delle due equalizzazioni;
#X text 1075 619 Riproduzione con la velocità FORWARD: In sostanza
do a line~ il punto da raggiungere e la velocità da utilizzare per
raggiungerlo. Devo quindi calcolare quanto manca alla fine della canzone
in sample e calcolare il tempo rimanente alla fine della canzone facendo
sample_rimanenti diviso saplerate per potergli fornire il tempo adeguato
(in millisecondi).;
#X text 1076 792 Possibile modifica: Far si che non si supporti unicamente
i 44100 sample al secondo. È possibile farlo leggendo dal brano il
suo sample rate e darlo in pasto agli expr sostituendo 44.1 con il
sample rate diviso mille.;
#X text 1163 -79 L'ultima equalizzazione usata viene salvata e riusata
alla successiva apertura del programma;
#X text 51 -193 Possibilita' di inserire un file solo per il canale
destro. scelta un po' inusuale \, ma resa possibile.;
#X text 1486 1262 comment;
#X obj 355 -87 s automaticStereo;
#X text 1174 109 Si calcola tutto in base al canale left. Va da sè
che entrambi i file caricati (se si usa un file separato per il canale
right) devono avere lo stesso sample rate e la stessa durata. Se il
file right è più lungo del left \, quest'ultimo verrà stoppato se
il file left finisce. Al contrario \, se il file right finisce prima
del left \, la riproduzione continuerà fino alla fine del left con
il right vuoto.;
#X text 987 137 FORWARD SPEED;
#X text 1005 218 BACKWARD SPEED;
#X obj 412 623 s currentSample;
#X obj 868 384 hsl 128 15 0 1 0 0 empty empty empty -2 -8 0 10 -262144
-1 -1 0 1;
#X obj 412 603 snapshot~;
#X obj 794 305 r currentSample;
#X obj 865 357 /;
#X obj 915 303 r sampleNumber;
#X floatatom 915 325 15 0 0 0 - - -;
#X text 874 402 Posizione corrente;
#X text 384 545 posizione corrente;
#X floatatom 794 326 15 0 0 0 - - -;
#X obj 1135 -43 r nabOn;
#X obj 25 175 openpanel;
#X obj 221 143 bng 15 250 50 0 empty empty empty 17 7 0 10 -262144
-1 -1;
#X obj 192 934 expr $f1 / 44.1;
#X obj 774 703 expr $f1 / 44.1;
#X obj 863 23 r stop;
#X obj 757 114 r forwardPlay;
#X obj 781 193 r backwardPlay;
#X floatatom 196 591 15 0 0 0 - - -;
#X obj 393 701 s backwardAudioEnd;
#X obj 196 652 s forwardAudioEnd;
#X obj 196 631 sel 1;
#X obj 393 681 sel 1;
#X obj 196 611 expr if($f1 == $f2 \, 1 \, 0);
#X floatatom 675 573 5 0 0 0 - - -;
#X obj 393 661 expr if($f1==0 && $f2!=0 \, 1 \, 0);
#X text 498 519 per sapere se sono in backward;
#X msg 161 625 -1;
#X msg 25 196 read -resize \$1 canzone_left;
#X obj -265 560 loadbang;
#X obj -265 609 s automaticStereo;
#X msg -265 583 0;
#N canvas 49 164 1127 581 playWithEq 1;
#X obj 320 106 inlet~;
#X obj 660 110 inlet~;
#X obj 701 481 dac~;
#X obj 261 186 *~;
#X obj 441 237 *~;
#X text 437 95 NAB: 1=ON;
#X text 530 94 IEC1: 1=ON;
#X obj 584 247 *~;
#X obj 797 221 *~;
#X floatatom 386 272 5 0 1 0 - - -;
#X obj 211 407 *~;
#X obj 688 375 *~;
#X obj 845 316 *~;
#X obj 298 250 r automaticStereo;
#X obj 455 418 *~;
#X text 379 440 NAB canale dx su uscita dx se stereo;
#X text 236 406 NAB canale sx su uscita dx se mono;
#X text 747 35 Possibile modifica: Far si che non si supporti unicamente
i 44100 sample al secondo. È possibile farlo leggendo dal brano il
suo sample rate e darlo in pasto agli expr sostituendo 44.1 con il
sample rate diviso mille.;
#X obj 449 132 nbx 3 14 0 1 0 1 empty empty empty 0 -8 0 10 -262144
-1 -1 1 10;
#X obj 542 131 nbx 3 14 0 1 0 1 empty empty empty 0 -8 0 10 -262144
-1 -1 0 10;
#X obj 262 331 expr if($f1==0 \, 1 \, 0);
#X text 363 293 Stereo? 1=SI;
#X obj 126 516 dac~;
#X text 202 147 NAB SX;
#X obj 723 158 lop~ 1000;
#X obj 368 170 lop~ 1000;
#X text 583 200 NAB DX;
#X obj 252 148 lop~ 100;
#X obj 624 200 lop~ 100;
#X text 728 144 CCIR DX;
#X text 377 156 CCIR SX;
#X text 714 368 CCIR canale sx su uscita dx se mono;
#X text 727 287 CCIR canale dx su uscita dx se stereo;
#X obj 449 112 r nab1;
#X obj 542 111 r ccir1;
#X msg 90 45 1;
#X obj 114 19 bng 15 250 50 0 empty empty empty 17 7 0 10 -262144 -1
-1;
#X msg 133 45 0;
#X text 95 3 ATTIVA NAB;
#X obj 241 18 bng 15 250 50 0 empty empty empty 17 7 0 10 -262144 -1
-1;
#X msg 260 44 1;
#X msg 217 44 0;
#X text 145 -17 EQUALIZZAZIONI;
#X text 197 2 ATTIVA CCIR;
#X obj 90 64 s nab1;
#X obj 134 64 s ccir1;
#X obj 217 63 s nab1;
#X obj 260 63 s ccir1;
#X connect 0 0 25 0;
#X connect 0 0 27 0;
#X connect 1 0 24 0;
#X connect 1 0 28 0;
#X connect 3 0 10 0;
#X connect 3 0 22 0;
#X connect 4 0 2 0;
#X connect 4 0 11 1;
#X connect 7 0 14 1;
#X connect 8 0 12 1;
#X connect 9 0 20 0;
#X connect 9 0 14 0;
#X connect 9 0 12 0;
#X connect 10 0 22 1;
#X connect 11 0 2 1;
#X connect 12 0 2 1;
#X connect 13 0 9 0;
#X connect 14 0 22 1;
#X connect 18 0 7 0;
#X connect 18 0 3 1;
#X connect 19 0 4 1;
#X connect 19 0 8 0;
#X connect 20 0 10 1;
#X connect 20 0 11 0;
#X connect 24 0 8 1;
#X connect 25 0 4 0;
#X connect 27 0 3 0;
#X connect 28 0 7 1;
#X connect 33 0 18 0;
#X connect 34 0 19 0;
#X connect 35 0 44 0;
#X connect 36 0 35 0;
#X connect 36 0 37 0;
#X connect 37 0 45 0;
#X connect 39 0 41 0;
#X connect 39 0 40 0;
#X connect 40 0 47 0;
#X connect 41 0 46 0;
#X restore 665 891 pd playWithEq;
#X obj 377 858 r seekTo;
#X msg 993 110 1;
#X msg 989 193 1;
#X text 664 98 Play avanti/indietro alla velocità desiderata;
#X text 194 129 LEFT CHANNEL;
#X text -230 584 Mono automatico all'avvio;
#X text 125 332 Sistema per non far iniziare subito la canzone alla
scelta effettuata;
#X text 968 94 Play normale;
#X text 965 175 Play normale;
#X obj -184 791 expr ($f1) / 44100;
#X floatatom -184 811 10 0 0 0 - - -;
#X obj -184 831 s totalSeconds;
#X obj 281 699 expr $f1 / 44100;
#X floatatom 281 718 10 0 0 0 - - -;
#X obj 281 739 s currentSecond;
#X obj 148 652 s pause;
#X obj 430 681 s pause;
#X obj 54 225 r loadLeft;
#X msg 382 56 0;
#X obj 382 74 s noAutomaticPlay;
#X msg 449 25 1;
#X obj 449 43 s automaticStereo;
#X obj 303 7 r loadRight;
#X obj 519 -163 r deleteRight;
#X obj 24 529 r playForward;
#X obj 819 571 r playBackward;
#X obj 775 239 s playBackward;
#X obj 754 155 s playForward;
#X obj 205 315 s currentSample;
#X obj 187 248 bng 15 250 50 0 empty empty empty 17 7 0 10 -262144
-1 -1;
#X msg 317 513 0;
#X msg 377 879 \$1;
#X obj 513 583 bng 15 250 50 0 empty empty empty 17 7 0 10 -262144
-1 -1;
#X obj -30 813 r sampleTarget;
#X obj 592 741 line~;
#X obj 405 560 metro 50;
#X obj 1405 -41 r ccirOn;
#X text 1305 -32 ATTIVA CCIR;
#X obj 1198 30 s nab1;
#X obj 1242 30 s ccir1;
#X obj 1325 29 s nab1;
#X obj 1368 29 s ccir1;
#X msg 426 1109 \$3 \, \$1 \$2;
#X floatatom 409 912 15 0 0 0 - - -;
#X obj 164 1043 pack f f f;
#X floatatom 336 983 15 0 0 0 - - -;
#X obj 473 829 bng 15 250 50 0 empty empty empty 17 7 0 10 -262144
-1 -1;
#X text 464 863 Resetto;
#X obj 917 598 r seekTo;
#X msg 917 619 \$1;
#X floatatom 941 643 15 0 0 0 - - -;
#X obj 1015 555 bng 15 250 50 0 empty empty empty 17 7 0 10 -262144
-1 -1;
#X text 1006 589 Resetto;
#X msg 825 789 \$2 \, 0 \$1;
#X obj 825 765 pack f f;
#X floatatom 899 706 15 0 0 0 - - -;
#X floatatom 715 777 15 0 0 0 - - -;
#X obj 505 906 s seekTo;
#X msg 472 878 -1;
#X msg 1014 604 -1;
#X obj 1015 625 s seekTo;
#X obj 336 962 expr if($f2>=0 \, $f2 \, $f1);
#X obj 775 657 expr if($f2>=0 \, $f2 \, $f1);
#X obj 492 846 loadbang;
#X obj 1084 521 loadbang;
#X connect 1 0 177 0;
#X connect 1 0 192 0;
#X connect 2 0 111 0;
#X connect 3 0 2 0;
#X connect 3 0 175 0;
#X connect 4 0 175 1;
#X connect 5 0 163 0;
#X connect 5 0 165 0;
#X connect 5 0 166 0;
#X connect 6 0 1 0;
#X connect 6 0 3 0;
#X connect 6 0 18 0;
#X connect 6 0 21 0;
#X connect 6 0 166 0;
#X connect 7 0 185 0;
#X connect 7 0 187 0;
#X connect 8 0 182 0;
#X connect 8 0 186 0;
#X connect 8 0 193 0;
#X connect 9 0 8 0;
#X connect 9 0 166 0;
#X connect 11 0 130 1;
#X connect 12 0 130 0;
#X connect 13 0 16 0;
#X connect 13 0 116 0;
#X connect 14 0 13 0;
#X connect 14 0 140 0;
#X connect 15 0 16 1;
#X connect 16 0 3 0;
#X connect 17 0 15 0;
#X connect 18 0 15 0;
#X connect 21 0 13 0;
#X connect 24 0 5 0;
#X connect 25 0 4 1;
#X connect 26 0 7 1;
#X connect 29 0 30 0;
#X connect 31 0 32 0;
#X connect 31 0 159 0;
#X connect 33 0 38 0;
#X connect 35 0 33 0;
#X connect 35 0 36 0;
#X connect 35 0 39 0;
#X connect 36 0 37 0;
#X connect 38 0 34 0;
#X connect 39 0 94 0;
#X connect 41 0 42 0;
#X connect 44 0 42 0;
#X connect 46 0 169 0;
#X connect 47 0 46 0;
#X connect 47 0 48 0;
#X connect 48 0 170 0;
#X connect 50 0 52 0;
#X connect 50 0 51 0;
#X connect 51 0 172 0;
#X connect 52 0 171 0;
#X connect 54 0 55 0;
#X connect 57 0 58 0;
#X connect 57 0 158 0;
#X connect 59 0 60 0;
#X connect 59 0 157 0;
#X connect 76 0 77 0;
#X connect 79 0 76 0;
#X connect 79 0 80 0;
#X connect 80 0 78 0;
#X connect 100 0 98 0;
#X connect 100 0 121 1;
#X connect 100 0 123 0;
#X connect 100 0 143 0;
#X connect 101 0 107 0;
#X connect 102 0 99 0;
#X connect 103 0 104 0;
#X connect 104 0 102 1;
#X connect 107 0 102 0;
#X connect 108 0 47 0;
#X connect 109 0 126 0;
#X connect 110 0 109 0;
#X connect 110 0 31 0;
#X connect 111 0 4 0;
#X connect 112 0 7 0;
#X connect 113 0 54 0;
#X connect 114 0 57 0;
#X connect 115 0 59 0;
#X connect 116 0 121 0;
#X connect 119 0 118 0;
#X connect 119 0 125 0;
#X connect 119 0 146 0;
#X connect 120 0 117 0;
#X connect 120 0 161 0;
#X connect 120 0 147 0;
#X connect 121 0 119 0;
#X connect 122 0 123 1;
#X connect 123 0 120 0;
#X connect 125 0 116 0;
#X connect 126 0 29 0;
#X connect 127 0 129 0;
#X connect 129 0 128 0;
#X connect 131 0 162 0;
#X connect 132 0 57 0;
#X connect 133 0 59 0;
#X connect 140 0 141 0;
#X connect 141 0 142 0;
#X connect 143 0 144 0;
#X connect 144 0 145 0;
#X connect 148 0 29 0;
#X connect 148 0 160 0;
#X connect 149 0 150 0;
#X connect 151 0 152 0;
#X connect 153 0 34 0;
#X connect 153 0 149 0;
#X connect 153 0 151 0;
#X connect 154 0 80 0;
#X connect 154 0 76 0;
#X connect 155 0 6 0;
#X connect 155 0 161 0;
#X connect 156 0 9 0;
#X connect 156 0 122 0;
#X connect 160 0 31 0;
#X connect 161 0 122 0;
#X connect 162 0 174 0;
#X connect 163 0 100 0;
#X connect 164 0 3 0;
#X connect 165 0 8 0;
#X connect 165 0 12 0;
#X connect 165 0 11 0;
#X connect 165 0 100 0;
#X connect 165 0 1 0;
#X connect 166 0 100 0;
#X connect 166 0 116 0;
#X connect 166 0 122 0;
#X connect 167 0 50 0;
#X connect 173 0 165 0;
#X connect 174 0 192 1;
#X connect 175 0 173 0;
#X connect 176 0 2 1;
#X connect 176 0 175 2;
#X connect 176 0 189 0;
#X connect 177 0 174 0;
#X connect 179 0 180 0;
#X connect 180 0 181 0;
#X connect 181 0 193 1;
#X connect 182 0 181 0;
#X connect 184 0 165 0;
#X connect 185 0 184 0;
#X connect 187 0 190 0;
#X connect 189 0 174 0;
#X connect 189 0 188 0;
#X connect 190 0 181 0;
#X connect 190 0 191 0;
#X connect 192 0 176 0;
#X connect 193 0 185 1;
#X connect 193 0 112 0;
#X connect 194 0 189 0;
#X connect 195 0 190 0;
